<?xml version="1.0" encoding="UTF-8"?>
<svg width="25px" height="25px" viewBox="0 0 25 25" version="1.1" xmlns="http://www.w3.org/2000/svg" xmlns:xlink="http://www.w3.org/1999/xlink">
    <!-- Generator: Sketch 53 (72520) - https://sketchapp.com -->
    <title>radio-off</title>
    <desc>Created with Sketch.</desc>
    <g id="Styleguide" stroke="none" stroke-width="1" fill="none" fill-rule="evenodd">
        <g transform="translate(-157.000000, -3321.000000)" fill="#C5C5C5" id="top-menu">
            <g transform="translate(-55.000000, 0.000000)">
                <g id="Group-9" transform="translate(212.000000, 3321.000000)">
                    <g id="radio-off">
                        <g id="Shape">
                            <path d="M12.5,4 C17.187,4 21,7.813 21,12.5 C21,17.187 17.187,21 12.5,21 C7.813,21 4,17.187 4,12.5 C4,7.813 7.813,4 12.5,4 L12.5,4 Z M12.5,0 C5.597,0 0,5.597 0,12.5 C0,19.403 5.597,25 12.5,25 C19.403,25 25,19.403 25,12.5 C25,5.597 19.403,0 12.5,0 Z" fill-rule="nonzero"></path>
                        </g>
                    </g>
                </g>
            </g>
        </g>
    </g>
</svg>